<mxfile host="app.diagrams.net" modified="2022-09-28T20:46:31.883Z" agent="5.0 (Macintosh; Intel Mac OS X 10_15_6) AppleWebKit/605.1.15 (KHTML, like Gecko) Version/14.0.3 Safari/605.1.15" etag="e5pxuNXZlIJDPapFpfkK" version="20.3.7" type="github">
  <diagram id="axkLbB_9V_NQQJHjQyQw" name="Página-1">
    <mxGraphModel dx="1702" dy="536" grid="1" gridSize="10" guides="1" tooltips="1" connect="1" arrows="1" fold="1" page="1" pageScale="1" pageWidth="827" pageHeight="1169" math="0" shadow="0">
      <root>
        <mxCell id="0" />
        <mxCell id="1" parent="0" />
        <mxCell id="kartLjXS2_xHecWkAKwR-21" style="edgeStyle=orthogonalEdgeStyle;rounded=0;orthogonalLoop=1;jettySize=auto;html=1;exitX=0.5;exitY=1;exitDx=0;exitDy=0;fontSize=10;" parent="1" source="kartLjXS2_xHecWkAKwR-2" edge="1">
          <mxGeometry relative="1" as="geometry">
            <mxPoint x="400.0999999999999" y="270.05360824742263" as="targetPoint" />
          </mxGeometry>
        </mxCell>
        <mxCell id="Y-nHlkq6my1EhL4j1iQC-20" style="edgeStyle=orthogonalEdgeStyle;rounded=0;orthogonalLoop=1;jettySize=auto;html=1;fontSize=11;" edge="1" parent="1" source="kartLjXS2_xHecWkAKwR-2" target="Y-nHlkq6my1EhL4j1iQC-1">
          <mxGeometry relative="1" as="geometry" />
        </mxCell>
        <mxCell id="kartLjXS2_xHecWkAKwR-2" value="Personal Shopper App (BSP)" style="rounded=1;whiteSpace=wrap;html=1;fillColor=#0050ef;fontColor=#ffffff;strokeColor=#001DBC;" parent="1" vertex="1">
          <mxGeometry x="340" y="160" width="120" height="60" as="geometry" />
        </mxCell>
        <mxCell id="kartLjXS2_xHecWkAKwR-7" style="edgeStyle=orthogonalEdgeStyle;rounded=0;orthogonalLoop=1;jettySize=auto;html=1;exitX=1;exitY=0.5;exitDx=0;exitDy=0;" parent="1" source="kartLjXS2_xHecWkAKwR-4" target="kartLjXS2_xHecWkAKwR-2" edge="1">
          <mxGeometry relative="1" as="geometry" />
        </mxCell>
        <mxCell id="kartLjXS2_xHecWkAKwR-4" value="Crear App en Meta de tipo comercial" style="rounded=0;whiteSpace=wrap;html=1;fillColor=#0050ef;fontColor=#ffffff;strokeColor=#001DBC;" parent="1" vertex="1">
          <mxGeometry x="120" y="160" width="120" height="60" as="geometry" />
        </mxCell>
        <mxCell id="kartLjXS2_xHecWkAKwR-14" value="" style="curved=1;endArrow=classic;html=1;rounded=0;fontSize=12;" parent="1" edge="1">
          <mxGeometry width="50" height="50" relative="1" as="geometry">
            <mxPoint x="460" y="160" as="sourcePoint" />
            <mxPoint x="510" y="110" as="targetPoint" />
            <Array as="points">
              <mxPoint x="510" y="160" />
              <mxPoint x="460" y="110" />
            </Array>
          </mxGeometry>
        </mxCell>
        <mxCell id="kartLjXS2_xHecWkAKwR-16" value="&lt;div style=&quot;&quot;&gt;&lt;span style=&quot;font-size: 9px; white-space: pre;&quot;&gt; &lt;/span&gt;&lt;span style=&quot;font-size: 9px;&quot;&gt;Personal Shopper App &lt;/span&gt;&lt;span style=&quot;font-size: 9px; white-space: pre;&quot;&gt;  &lt;/span&gt;&lt;span style=&quot;font-size: 9px;&quot;&gt;debe pertener a un proveedor de&amp;nbsp;&lt;/span&gt;&lt;span style=&quot;font-size: 9px;&quot;&gt;soluciones&amp;nbsp;&lt;/span&gt;&lt;/div&gt;" style="ellipse;shape=cloud;whiteSpace=wrap;html=1;fontSize=12;align=center;" parent="1" vertex="1">
          <mxGeometry x="510" y="40" width="150" height="130" as="geometry" />
        </mxCell>
        <mxCell id="kartLjXS2_xHecWkAKwR-30" style="edgeStyle=orthogonalEdgeStyle;rounded=0;orthogonalLoop=1;jettySize=auto;html=1;exitX=0.5;exitY=1;exitDx=0;exitDy=0;entryX=0.205;entryY=-0.042;entryDx=0;entryDy=0;entryPerimeter=0;fontSize=11;" parent="1" source="kartLjXS2_xHecWkAKwR-24" target="kartLjXS2_xHecWkAKwR-27" edge="1">
          <mxGeometry relative="1" as="geometry" />
        </mxCell>
        <mxCell id="kartLjXS2_xHecWkAKwR-31" style="edgeStyle=orthogonalEdgeStyle;rounded=0;orthogonalLoop=1;jettySize=auto;html=1;exitX=0.25;exitY=1;exitDx=0;exitDy=0;fontSize=11;" parent="1" source="kartLjXS2_xHecWkAKwR-24" target="kartLjXS2_xHecWkAKwR-26" edge="1">
          <mxGeometry relative="1" as="geometry" />
        </mxCell>
        <mxCell id="kartLjXS2_xHecWkAKwR-24" value="" style="whiteSpace=wrap;html=1;fontSize=10;" parent="1" vertex="1">
          <mxGeometry x="322.5" y="270" width="167.5" height="60" as="geometry" />
        </mxCell>
        <mxCell id="Y-nHlkq6my1EhL4j1iQC-25" style="edgeStyle=orthogonalEdgeStyle;rounded=0;orthogonalLoop=1;jettySize=auto;html=1;exitX=0;exitY=0.5;exitDx=0;exitDy=0;fontSize=11;" edge="1" parent="1" source="kartLjXS2_xHecWkAKwR-22" target="Y-nHlkq6my1EhL4j1iQC-26">
          <mxGeometry relative="1" as="geometry">
            <mxPoint x="70" y="440" as="targetPoint" />
          </mxGeometry>
        </mxCell>
        <mxCell id="kartLjXS2_xHecWkAKwR-22" value="¿Que implica para nosotros &#xa;como proveedor de soluciones ?" style="text;strokeColor=none;fillColor=none;align=left;verticalAlign=middle;spacingLeft=4;spacingRight=4;overflow=hidden;points=[[0,0.5],[1,0.5]];portConstraint=eastwest;rotatable=0;fontSize=10;" parent="1" vertex="1">
          <mxGeometry x="327.5" y="280" width="162.5" height="40" as="geometry" />
        </mxCell>
        <mxCell id="Y-nHlkq6my1EhL4j1iQC-24" value="" style="edgeStyle=orthogonalEdgeStyle;rounded=0;orthogonalLoop=1;jettySize=auto;html=1;fontSize=11;" edge="1" parent="1" source="kartLjXS2_xHecWkAKwR-26" target="Y-nHlkq6my1EhL4j1iQC-23">
          <mxGeometry relative="1" as="geometry" />
        </mxCell>
        <mxCell id="kartLjXS2_xHecWkAKwR-26" value="&lt;h1&gt;Cuenta comercial&lt;/h1&gt;&lt;p&gt;&lt;span style=&quot;caret-color: rgb(75, 79, 86); color: rgb(75, 79, 86); font-family: &amp;quot;Graphik LCG Web&amp;quot;, &amp;quot;Graphik Arabic Web Regular&amp;quot;, -apple-system, BlinkMacSystemFont, &amp;quot;Helvetica Neue&amp;quot;, Helvetica, Arial, &amp;quot;Lucida Grande&amp;quot;, sans-serif; background-color: rgb(255, 255, 255);&quot;&gt;&lt;font style=&quot;font-size: 11px;&quot;&gt;Necesitas una cuenta del administrador comercial para administrar la línea de crédito y las cuentas de WhatsApp Business (WABA) de los clientes.&lt;/font&gt;&lt;/span&gt;&lt;br&gt;&lt;/p&gt;&lt;p&gt;&lt;span style=&quot;background-color: rgb(255, 255, 255);&quot;&gt;&lt;font&gt;&lt;font face=&quot;Graphik LCG Web, Graphik Arabic Web Regular, -apple-system, BlinkMacSystemFont, Helvetica Neue, Helvetica, Arial, Lucida Grande, sans-serif&quot; color=&quot;#4b4f56&quot;&gt;&lt;span style=&quot;caret-color: rgb(75, 79, 86); font-size: 11px;&quot;&gt;Esto implica tener una cuenta comercial de personal shopper&amp;nbsp;business verificada.&lt;/span&gt;&lt;/font&gt;&lt;/font&gt;&lt;/span&gt;&lt;/p&gt;" style="text;html=1;strokeColor=none;fillColor=none;spacing=5;spacingTop=-20;whiteSpace=wrap;overflow=hidden;rounded=0;fontSize=10;" parent="1" vertex="1">
          <mxGeometry x="160" y="370" width="190" height="170" as="geometry" />
        </mxCell>
        <mxCell id="kartLjXS2_xHecWkAKwR-34" value="" style="edgeStyle=orthogonalEdgeStyle;rounded=0;orthogonalLoop=1;jettySize=auto;html=1;fontSize=11;" parent="1" source="kartLjXS2_xHecWkAKwR-27" target="kartLjXS2_xHecWkAKwR-33" edge="1">
          <mxGeometry relative="1" as="geometry" />
        </mxCell>
        <mxCell id="kartLjXS2_xHecWkAKwR-27" value="&lt;h1&gt;Linea de credito&lt;/h1&gt;&lt;p style=&quot;font-size: 11px;&quot;&gt;&lt;span style=&quot;caret-color: rgb(75, 79, 86); color: rgb(75, 79, 86); font-family: &amp;quot;Graphik LCG Web&amp;quot;, &amp;quot;Graphik Arabic Web Regular&amp;quot;, -apple-system, BlinkMacSystemFont, &amp;quot;Helvetica Neue&amp;quot;, Helvetica, Arial, &amp;quot;Lucida Grande&amp;quot;, sans-serif; background-color: rgb(255, 255, 255);&quot;&gt;Es necesario que&amp;nbsp;&lt;/span&gt;&lt;a style=&quot;color: rgb(56, 88, 152); cursor: pointer; text-decoration: none; font-family: &amp;quot;Graphik LCG Web&amp;quot;, &amp;quot;Graphik Arabic Web Regular&amp;quot;, -apple-system, BlinkMacSystemFont, &amp;quot;Helvetica Neue&amp;quot;, Helvetica, Arial, &amp;quot;Lucida Grande&amp;quot;, sans-serif;&quot; href=&quot;https://www.facebook.com/business/help/1684730811624773?id=2129163877102343&quot;&gt;configures una línea de crédito&lt;/a&gt;&lt;span style=&quot;caret-color: rgb(75, 79, 86); color: rgb(75, 79, 86); font-family: &amp;quot;Graphik LCG Web&amp;quot;, &amp;quot;Graphik Arabic Web Regular&amp;quot;, -apple-system, BlinkMacSystemFont, &amp;quot;Helvetica Neue&amp;quot;, Helvetica, Arial, &amp;quot;Lucida Grande&amp;quot;, sans-serif; background-color: rgb(255, 255, 255);&quot;&gt;&amp;nbsp;para enviar mensajes con la API de la Plataforma de WhatsApp Business.&lt;/span&gt;&lt;br&gt;&lt;/p&gt;&lt;p style=&quot;font-size: 11px;&quot;&gt;&lt;span style=&quot;caret-color: rgb(75, 79, 86); color: rgb(75, 79, 86); font-family: &amp;quot;Graphik LCG Web&amp;quot;, &amp;quot;Graphik Arabic Web Regular&amp;quot;, -apple-system, BlinkMacSystemFont, &amp;quot;Helvetica Neue&amp;quot;, Helvetica, Arial, &amp;quot;Lucida Grande&amp;quot;, sans-serif; background-color: rgb(255, 255, 255);&quot;&gt;&lt;br&gt;&lt;/span&gt;&lt;/p&gt;" style="text;html=1;strokeColor=none;fillColor=none;spacing=5;spacingTop=-20;whiteSpace=wrap;overflow=hidden;rounded=0;fontSize=10;" parent="1" vertex="1">
          <mxGeometry x="400" y="380" width="190" height="120" as="geometry" />
        </mxCell>
        <mxCell id="kartLjXS2_xHecWkAKwR-33" value="&lt;h2 style=&quot;color: rgb(28, 30, 33); font-size: 20px; margin: 24px 0px; padding: 0px; line-height: 24px; font-family: &amp;quot;Graphik LCG Web&amp;quot;, &amp;quot;Graphik Arabic Web Regular&amp;quot;, -apple-system, BlinkMacSystemFont, &amp;quot;Helvetica Neue&amp;quot;, Helvetica, Arial, &amp;quot;Lucida Grande&amp;quot;, sans-serif;&quot; id=&quot;divulgaci-n-de-responsabilidad-de-facturaci-n&quot;&gt;Divulgación de responsabilidad de facturación&lt;/h2&gt;&lt;p style=&quot;margin: 0px 0px 24px; caret-color: rgb(75, 79, 86); color: rgb(75, 79, 86); font-family: &amp;quot;Graphik LCG Web&amp;quot;, &amp;quot;Graphik Arabic Web Regular&amp;quot;, -apple-system, BlinkMacSystemFont, &amp;quot;Helvetica Neue&amp;quot;, Helvetica, Arial, &amp;quot;Lucida Grande&amp;quot;, sans-serif;&quot;&gt;&lt;font style=&quot;font-size: 11px;&quot;&gt;Las empresas que usan el proceso de registro insertado solicitan acceso a tu línea de crédito con Meta para pagar por el acceso a la Plataforma de WhatsApp Business.&amp;nbsp;Esto significa que las empresas te pagan a ti y recibes una factura acumulada para el pago a Meta.&lt;/font&gt;&lt;/p&gt;&lt;p style=&quot;margin: 0px 0px 24px; caret-color: rgb(75, 79, 86); color: rgb(75, 79, 86); font-family: &amp;quot;Graphik LCG Web&amp;quot;, &amp;quot;Graphik Arabic Web Regular&amp;quot;, -apple-system, BlinkMacSystemFont, &amp;quot;Helvetica Neue&amp;quot;, Helvetica, Arial, &amp;quot;Lucida Grande&amp;quot;, sans-serif;&quot;&gt;&lt;font style=&quot;font-size: 11px;&quot;&gt;Eres el &quot;Destinatario de la factura&quot; de todas las empresas que comparten tu línea de crédito. Eres responsable por Meta y deberás pagarle todos los gastos relacionados con la Plataforma de WhatsApp Business que realizaron estas empresas.&lt;/font&gt;&lt;/p&gt;" style="text;html=1;strokeColor=none;fillColor=none;spacing=5;spacingTop=-20;whiteSpace=wrap;overflow=hidden;rounded=0;fontSize=11;" parent="1" vertex="1">
          <mxGeometry x="320" y="540" width="270" height="325" as="geometry" />
        </mxCell>
        <mxCell id="Y-nHlkq6my1EhL4j1iQC-10" style="edgeStyle=orthogonalEdgeStyle;rounded=0;orthogonalLoop=1;jettySize=auto;html=1;exitX=0.5;exitY=1;exitDx=0;exitDy=0;entryX=0.5;entryY=0;entryDx=0;entryDy=0;fontSize=11;" edge="1" parent="1" source="Y-nHlkq6my1EhL4j1iQC-1" target="Y-nHlkq6my1EhL4j1iQC-5">
          <mxGeometry relative="1" as="geometry" />
        </mxCell>
        <mxCell id="Y-nHlkq6my1EhL4j1iQC-1" value="&lt;span style=&quot;font-size: 10px; text-align: left;&quot;&gt;¿Que implica para los&amp;nbsp;&lt;/span&gt;&lt;br style=&quot;padding: 0px; margin: 0px; font-size: 10px; text-align: left;&quot;&gt;&lt;span style=&quot;font-size: 10px; text-align: left;&quot;&gt;clientes que usan la App?&lt;/span&gt;" style="rounded=1;whiteSpace=wrap;html=1;fontSize=11;" vertex="1" parent="1">
          <mxGeometry x="660" y="260" width="120" height="60" as="geometry" />
        </mxCell>
        <mxCell id="Y-nHlkq6my1EhL4j1iQC-5" value="Requisitos" style="swimlane;fontStyle=0;childLayout=stackLayout;horizontal=1;startSize=30;horizontalStack=0;resizeParent=1;resizeParentMax=0;resizeLast=0;collapsible=1;marginBottom=0;fontSize=11;" vertex="1" parent="1">
          <mxGeometry x="640" y="380" width="160" height="230" as="geometry">
            <mxRectangle x="645" y="370" width="90" height="30" as="alternateBounds" />
          </mxGeometry>
        </mxCell>
        <mxCell id="Y-nHlkq6my1EhL4j1iQC-6" value="Tener cuenta comercial" style="text;strokeColor=none;fillColor=none;align=left;verticalAlign=middle;spacingLeft=4;spacingRight=4;overflow=hidden;points=[[0,0.5],[1,0.5]];portConstraint=eastwest;rotatable=0;fontSize=11;" vertex="1" parent="Y-nHlkq6my1EhL4j1iQC-5">
          <mxGeometry y="30" width="160" height="30" as="geometry" />
        </mxCell>
        <mxCell id="Y-nHlkq6my1EhL4j1iQC-7" value="Realizar el registro insertado" style="text;strokeColor=none;fillColor=none;align=left;verticalAlign=middle;spacingLeft=4;spacingRight=4;overflow=hidden;points=[[0,0.5],[1,0.5]];portConstraint=eastwest;rotatable=0;fontSize=11;" vertex="1" parent="Y-nHlkq6my1EhL4j1iQC-5">
          <mxGeometry y="60" width="160" height="30" as="geometry" />
        </mxCell>
        <mxCell id="Y-nHlkq6my1EhL4j1iQC-19" value="Tener una cuenta de &#xa;WhatsApp Business" style="text;strokeColor=none;fillColor=none;align=left;verticalAlign=middle;spacingLeft=4;spacingRight=4;overflow=hidden;points=[[0,0.5],[1,0.5]];portConstraint=eastwest;rotatable=0;fontSize=11;" vertex="1" parent="Y-nHlkq6my1EhL4j1iQC-5">
          <mxGeometry y="90" width="160" height="40" as="geometry" />
        </mxCell>
        <mxCell id="Y-nHlkq6my1EhL4j1iQC-8" value="Crear un unico numero &#xa;verificado para personal shopper" style="text;strokeColor=none;fillColor=none;align=left;verticalAlign=middle;spacingLeft=4;spacingRight=4;overflow=hidden;points=[[0,0.5],[1,0.5]];portConstraint=eastwest;rotatable=0;fontSize=11;horizontal=1;" vertex="1" parent="Y-nHlkq6my1EhL4j1iQC-5">
          <mxGeometry y="130" width="160" height="30" as="geometry" />
        </mxCell>
        <mxCell id="Y-nHlkq6my1EhL4j1iQC-18" value="Asumir los costos de envío de&#xa;mensajes por la api de&#xa; WhatsApp Business" style="text;strokeColor=none;fillColor=none;align=left;verticalAlign=middle;spacingLeft=4;spacingRight=4;overflow=hidden;points=[[0,0.5],[1,0.5]];portConstraint=eastwest;rotatable=0;fontSize=11;horizontal=1;" vertex="1" parent="Y-nHlkq6my1EhL4j1iQC-5">
          <mxGeometry y="160" width="160" height="70" as="geometry" />
        </mxCell>
        <mxCell id="Y-nHlkq6my1EhL4j1iQC-23" value="Documentos que verifiquen tu empresa" style="whiteSpace=wrap;html=1;fontSize=11;" vertex="1" parent="1">
          <mxGeometry x="150" y="580" width="120" height="60" as="geometry" />
        </mxCell>
        <mxCell id="Y-nHlkq6my1EhL4j1iQC-26" value="Enviar a revision &amp;nbsp;la aplicación de personal shopper donde ellos se encargan de validar la funcionalidad" style="shape=process;whiteSpace=wrap;html=1;backgroundOutline=1;fontSize=11;" vertex="1" parent="1">
          <mxGeometry x="-20" y="410" width="150" height="70" as="geometry" />
        </mxCell>
      </root>
    </mxGraphModel>
  </diagram>
</mxfile>
